<svg xmlns="http://www.w3.org/2000/svg" viewBox="0 0 1600 1000" fill="none" aria-hidden="true">
  <defs>
    <filter id="w" x="-20%" y="-20%" width="140%" height="140%">
      <feGaussianBlur in="SourceGraphic" stdDeviation="48" />
    </filter>
    <filter id="w2" x="-20%" y="-20%" width="140%" height="140%">
      <feGaussianBlur in="SourceGraphic" stdDeviation="28" />
    </filter>
    <linearGradient id="sky" x1="0%" y1="0%" x2="100%" y2="80%">
      <stop offset="0%" stop-color="#c5d4dc" stop-opacity="0.55" />
      <stop offset="45%" stop-color="#d8e4e8" stop-opacity="0.35" />
      <stop offset="100%" stop-color="#e8ebe4" stop-opacity="0.2" />
    </linearGradient>
    <linearGradient id="hill1" x1="50%" y1="0%" x2="50%" y2="100%">
      <stop offset="0%" stop-color="#9cb0a4" stop-opacity="0.42" />
      <stop offset="100%" stop-color="#b8c9b0" stop-opacity="0.22" />
    </linearGradient>
    <linearGradient id="hill2" x1="0%" y1="0%" x2="100%" y2="0%">
      <stop offset="0%" stop-color="#a8bfc8" stop-opacity="0.38" />
      <stop offset="100%" stop-color="#c4d4d8" stop-opacity="0.18" />
    </linearGradient>
    <linearGradient id="mist" x1="50%" y1="100%" x2="50%" y2="0%">
      <stop offset="0%" stop-color="#f2f0e9" stop-opacity="0.95" />
      <stop offset="55%" stop-color="#f2f0e9" stop-opacity="0" />
    </linearGradient>
  </defs>
  <rect width="1600" height="1000" fill="url(#sky)" />
  <ellipse cx="380" cy="520" rx="420" ry="220" fill="url(#hill1)" filter="url(#w)" />
  <ellipse cx="900" cy="480" rx="380" ry="260" fill="url(#hill2)" filter="url(#w)" />
  <ellipse cx="1200" cy="560" rx="340" ry="180" fill="#9eb8a8" fill-opacity="0.25" filter="url(#w2)" />
  <ellipse cx="200" cy="620" rx="280" ry="140" fill="#a8c4c8" fill-opacity="0.2" filter="url(#w2)" />
  <path
    d="M200 380 Q400 340 700 400 T1200 360 L1400 420 L1380 480 Q900 420 500 460 Z"
    fill="#8aa4a8"
    fill-opacity="0.15"
    filter="url(#w)"
  />
  <rect width="1600" height="1000" fill="url(#mist)" />
</svg>
